<svg version="1.1" xmlns="http://www.w3.org/2000/svg" style="display: block;" viewBox="505.84 70.92 981.9549668874172 821.7727272727273" width="362" height="303" preserveAspectRatio="none" xmlns:xlink="http://www.w3.org/1999/xlink">
<defs>
	<linearGradient id="Gradient1" gradientUnits="userSpaceOnUse" x1="858.961" y1="203.237" x2="928.031" y2="199.606">
		<stop class="stop0" offset="0" stop-opacity="1" stop-color="rgb(6,5,3)"/>
		<stop class="stop1" offset="1" stop-opacity="1" stop-color="rgb(25,25,10)"/>
	</linearGradient>
</defs>
<path transform="translate(0,0)" fill="rgb(253,218,85)" d="M 731.671 626.027 C 728.75 625.485 725.859 624.797 723.008 623.965 C 655.57 603.87 599.503 560.229 566.178 497.976 C 533.164 436.771 526.2 364.847 546.857 298.445 C 614.268 77.5573 911.837 53.2535 1019.99 252.939 C 1041.39 292.445 1057.85 356.416 1044.34 400.251 C 1048.86 415.526 1053.22 426.863 1062.02 440.088 C 1062.95 424.789 1061.76 409.839 1061.67 394.572 C 1061.54 369.65 1062.2 344.722 1061.47 319.798 C 1061.34 315.518 1061.41 311.461 1061.82 307.194 C 1070.53 307.001 1078.26 306.844 1087 307.258 L 1087.13 410.706 C 1087.17 429.643 1088.03 457.911 1086.51 476.233 C 1075.59 476.249 1058.78 476.748 1048.43 475.83 C 1045.18 468.838 1041.8 461.905 1038.3 455.034 C 1019.49 509.191 993.361 543.643 949.139 580.286 C 940.632 587.334 927.722 594.18 920.662 600.608 C 926.068 600.766 931.476 600.886 936.885 600.97 C 936.96 612.025 937.302 624.524 936.723 635.414 C 919.953 634.777 903.335 636.601 888.463 635.982 C 888.473 653.255 888.659 670.528 889.021 687.797 C 918.434 686.378 951.63 686.352 981.186 686.633 C 981.342 696.606 981.332 716.539 980.074 726.137 C 951.694 726.706 923.207 726.084 894.807 726.588 C 884.132 726.778 871.795 727.122 861.34 725.502 C 859.571 694.241 860.63 655.119 860.935 623.585 C 846.614 626.448 833.835 629.026 819.312 630.604 C 813.335 633.262 773.267 633.138 765.373 632.166 C 764.649 662.155 766.136 697.223 764.187 726.487 C 756.278 726.658 737.125 728.066 731.562 723.269 C 730.629 712.791 731.579 702.924 731.589 692.523 C 731.611 671.219 733.032 647.11 731.671 626.027 z"/>
<path transform="translate(0,0)" fill="rgb(18,17,17)" d="M 861.443 507.853 C 901.96 507.834 944.309 506.65 984.549 507.489 C 985.094 519.612 985.045 529.705 984.768 541.854 C 953.622 542.722 919.794 541.234 888.35 540.953 C 888.298 561.367 888.543 581.782 889.083 602.189 C 896.616 602.262 914.406 602.856 920.662 600.608 C 926.068 600.766 931.476 600.886 936.885 600.97 C 936.96 612.025 937.302 624.524 936.723 635.414 C 919.953 634.777 903.335 636.601 888.463 635.982 C 888.473 653.255 888.659 670.528 889.021 687.797 C 918.434 686.378 951.63 686.352 981.186 686.633 C 981.342 696.606 981.332 716.539 980.074 726.137 C 951.694 726.706 923.207 726.084 894.807 726.588 C 884.132 726.778 871.795 727.122 861.34 725.502 C 859.571 694.241 860.63 655.119 860.935 623.585 C 862.26 585.962 860.179 546.053 861.443 507.853 z"/>
<path transform="translate(0,0)" fill="rgb(18,17,17)" d="M 732.69 506.065 C 769.227 505.215 811.768 503.17 847.995 503.758 C 848.55 516.768 848.877 529.788 848.976 542.81 C 820.85 544.607 791.686 544.726 764.205 546.778 C 764.235 563.149 764.055 580.864 764.915 597.127 C 781.355 596.454 802.487 594.572 818.225 594.878 C 818.525 604.98 818.412 621.165 819.312 630.604 C 813.335 633.262 773.267 633.138 765.373 632.166 C 764.649 662.155 766.136 697.223 764.187 726.487 C 756.278 726.658 737.125 728.066 731.562 723.269 C 730.629 712.791 731.579 702.924 731.589 692.523 C 731.611 671.219 733.032 647.11 731.671 626.027 C 732.716 611.349 732.355 594.641 732.412 579.726 L 732.69 506.065 z"/>
<path transform="translate(0,0)" fill="rgb(18,17,17)" d="M 1061.82 307.194 C 1070.53 307.001 1078.26 306.844 1087 307.258 L 1087.13 410.706 C 1087.17 429.643 1088.03 457.911 1086.51 476.233 C 1075.59 476.249 1058.78 476.748 1048.43 475.83 C 1045.18 468.838 1041.8 461.905 1038.3 455.034 C 1036.49 450.866 1033.9 445.656 1031.72 441.624 C 1017.53 415.382 1006.01 384.2 990.551 358.921 C 989.741 372.418 990.243 389.427 990.288 403.146 C 990.198 427.403 990.39 451.661 990.864 475.913 L 967.298 476.055 C 967.821 422.404 966.572 361.474 968.681 308.533 C 979.113 308.258 989.55 308.305 999.98 308.672 C 1008.44 327.602 1017.06 346.464 1025.82 365.257 C 1030.7 375.784 1037.46 390.916 1043.4 400.772 L 1044.34 400.251 C 1048.86 415.526 1053.22 426.863 1062.02 440.088 C 1062.95 424.789 1061.76 409.839 1061.67 394.572 C 1061.54 369.65 1062.2 344.722 1061.47 319.798 C 1061.34 315.518 1061.41 311.461 1061.82 307.194 z"/>
<path transform="translate(0,0)" fill="rgb(18,17,17)" d="M 882.18 293.296 C 895.633 291.879 909.192 294.71 920.955 301.393 C 935.253 309.415 949.92 327.112 953.437 342.463 C 956.923 357.68 957.793 404.452 955.236 418.907 C 954.013 426.205 951.486 433.224 947.777 439.628 C 936.648 458.955 920.607 468.405 899.641 474.121 C 881.141 476.939 866.608 471.502 851.335 461.446 C 822.212 442.273 823.598 411.579 824.092 380.478 C 824.284 368.41 823.566 356.21 826.381 344.325 C 828.434 335.765 832.104 327.676 837.192 320.493 C 848.35 304.626 863.423 296.614 882.18 293.296 z"/>
<path transform="translate(0,0)" fill="rgb(253,218,85)" d="M 886.777 332.075 C 894.328 331.333 901.246 333.564 907.615 337.575 C 916.68 343.349 923.045 352.522 925.282 363.035 C 928 375.727 927.755 402.649 919.475 413.637 C 911.158 424.674 904.377 427.134 891.963 429.694 C 864.848 432.391 851.804 406.197 853.008 382.823 C 854.627 351.373 856.052 343.009 886.777 332.075 z"/>
<path transform="translate(0,0)" fill="rgb(18,17,17)" d="M 735.782 306.513 C 744.091 306.075 753.855 306.237 762.275 306.17 C 763.052 318.719 762.218 338.844 762.031 351.843 C 761.277 383.733 760.957 415.633 761.071 447.532 C 778.546 447.339 796.023 447.481 813.492 447.959 C 813.886 457.322 814.095 466.693 814.119 476.064 C 789.856 476.815 756.996 476.84 732.956 476.004 L 734.291 369.821 C 734.547 350.172 734.268 325.661 735.782 306.513 z"/>
<path transform="translate(0,0)" fill="url(#Gradient1)" d="M 894.083 159.151 C 922.682 156.469 937.935 180.712 923.646 205.788 C 913.651 223.327 912.337 233.291 893.356 244.021 C 889.218 244.61 885.802 244.052 881.827 242.563 C 861.477 234.941 852.156 225.274 861.725 203.249 C 868.642 187.328 877.343 166.663 894.083 159.151 z"/>
<path transform="translate(0,0)" fill="rgb(253,218,85)" d="M 900.636 173.948 C 901.597 173.928 902.558 173.945 903.517 173.999 C 929.555 175.527 894.364 225.814 886.492 231.844 C 861.247 227.038 880.193 206.835 886.114 192.871 C 888.717 186.732 895.072 177.611 900.636 173.948 z"/>
<path transform="translate(0,0)" fill="rgb(18,17,17)" d="M 635.158 199.634 C 640.657 201.31 693.614 247.988 700.63 254.58 C 697.647 257.87 692.499 262.254 689.054 265.36 C 676.933 255.397 663.487 242.687 652.096 231.827 C 653.173 238.427 653.518 245.394 653.971 252.088 C 645.888 251.485 641.009 250.84 633.042 249.342 L 652.192 266.184 C 659.412 272.414 665.937 278.156 672.875 284.736 C 668.955 289.721 667.376 291.129 662.54 295.232 C 647.05 284.468 611.315 252.977 598.908 239.278 C 600.616 236.732 603.347 232.464 606.008 231.196 C 613.532 227.61 630.541 235.065 639.036 237.916 C 635.275 227.757 631.31 217.675 627.144 207.675 C 629.355 205.006 632.604 202.077 635.158 199.634 z"/>
<path transform="translate(0,0)" fill="rgb(18,17,17)" d="M 562.288 318.781 C 572.962 319.412 641.806 328.67 646.386 332.016 C 647.253 334.591 646.327 342.393 644.23 343.158 C 627.643 349.209 610.361 351.358 593.844 358.301 C 609.612 360.623 627.148 362.492 642.584 365.729 C 641.825 369.887 640.646 374.565 639.702 378.733 C 637.066 381.328 562.832 368.789 557.391 365.946 C 555.894 362.251 556.785 357.703 557.193 353.639 C 572.45 347.531 590.274 345.414 606.337 339.623 C 591.168 337.595 576.026 335.37 560.915 332.948 L 562.288 318.781 z"/>
<path transform="translate(0,0)" fill="rgb(18,17,17)" d="M 636.465 383.938 L 638.196 384.528 C 640.53 387.065 641.911 393.129 642.981 396.673 C 635.982 401.168 624.804 405.564 616.913 408.959 L 619.692 423.245 L 647.882 422.102 C 648.43 427.367 648.898 432.639 649.286 437.918 C 632.27 438.391 615.257 438.978 598.248 439.679 C 588.386 440.181 572.255 440.909 562.86 439.818 C 560.696 431.732 559.626 424.862 558.673 416.587 C 577.255 406.746 614.643 393.525 636.465 383.938 z"/>
<path transform="translate(0,0)" fill="rgb(253,218,85)" d="M 603.085 414.011 C 604.257 414.606 605.55 417.214 606.311 418.49 C 605.016 422.5 604.746 423.083 600.218 423.728 C 593.984 424.617 587.25 424.78 580.971 425.067 L 579.728 424.51 C 581.639 422.16 599.014 415.666 603.085 414.011 z"/>
<path transform="translate(0,0)" fill="rgb(18,17,17)" d="M 695.795 161.051 C 696.004 161.067 696.214 161.072 696.422 161.1 C 704.548 162.179 742.916 217.517 751.052 228.345 C 746.199 231.313 742.115 232.893 736.887 235.072 L 721.527 212.84 C 718.53 214.726 714.474 216.817 711.304 218.569 L 709.556 219.503 C 707.923 223.499 715.688 241.705 717.562 246.698 C 713.317 249.135 708.139 251.238 703.609 253.223 C 696.835 238.167 680.236 185.824 677.399 169.614 C 683.657 165.401 688.698 163.3 695.795 161.051 z"/>
<path transform="translate(0,0)" fill="rgb(253,218,85)" d="M 696.01 180.529 C 700.872 182.779 710.02 196.913 712.365 202.033 L 711.449 204.107 C 708.461 206.072 705.233 208.777 702.866 204.64 C 699.12 198.095 697.642 187.944 696.01 180.529 z"/>
<path transform="translate(0,0)" fill="rgb(18,17,17)" d="M 810.397 137.218 C 818.917 138.347 847.116 141.301 852.994 144.64 C 854.283 146.949 853.53 153.519 851.943 154.123 C 845.102 156.726 831.293 152.919 824.614 151.509 C 823.546 158.689 823.086 164.498 822.608 171.755 C 830.639 172.378 838.646 173.284 846.613 174.472 C 846.356 179.052 845.898 183.926 845.544 188.528 C 837.559 187.911 828.486 186.63 820.449 185.686 C 819.907 189.732 819.428 193.786 819.013 197.846 C 818.516 201.111 817.625 204.117 819.109 206.963 C 824.041 211.152 838.13 210.326 846.307 211.236 C 846.144 215.723 845.558 220.673 845.125 225.178 C 831.804 224.533 814.157 221.794 800.828 219.688 C 802.786 194.153 807.359 162.966 810.397 137.218 z"/>
<path transform="translate(0,0)" fill="rgb(18,17,17)" d="M 642.416 447.009 C 662.633 445.918 670.894 466.12 670.442 483.055 C 670.369 485.784 671.091 490.735 667.529 491.528 C 664.507 492.2 661.435 492.706 658.586 491.337 C 657.362 481.4 652.23 448.684 638.412 470.124 C 627.315 487.344 647.318 505.086 619.583 518.464 C 606.211 522.711 598.481 517.258 590.918 505.793 C 587.397 500.455 585.153 494.613 587.501 488.299 C 589.837 485.531 593.932 484.735 597.481 483.64 C 598.685 490.297 599.979 500.67 606.48 504.085 C 608.538 504.561 608.807 504.425 610.706 503.837 C 625.749 499.179 614.925 475.427 621.156 463.093 C 625.733 454.031 633.118 450.511 642.416 447.009 z"/>
<path transform="translate(0,0)" fill="rgb(18,17,17)" d="M 777.132 139.41 L 779.129 139.899 C 780.881 143.016 781.226 147.611 781.75 151.248 C 777.287 152.495 770.277 153.674 765.544 154.601 C 770.098 177.707 775.106 200.938 779.074 224.121 C 773.532 226.192 771.037 227.809 765.716 225.918 C 763.061 223.324 762.7 218.566 761.986 214.767 C 757.837 195.802 753.874 176.798 750.097 157.756 C 744.544 158.508 738.651 158.987 733.044 159.526 C 732.178 155.694 730.97 151.897 731.783 148.086 C 734.709 144.643 769.935 140.455 777.132 139.41 z"/>
<path transform="translate(0,0)" fill="rgb(18,17,17)" d="M 1258.94 142.325 C 1321.95 135.211 1292.1 166.129 1308.19 202.885 C 1305.31 211.62 1302.56 220.774 1298.53 229.012 C 1292.82 231.108 1285.01 233.961 1283.5 240.574 C 1278.81 261.104 1317.51 271.243 1330.96 277.888 C 1339.3 282.032 1347.1 287.179 1354.19 293.215 C 1377.32 313.207 1412.54 371.927 1430.23 399.331 C 1440.11 414.636 1458.55 444.039 1466.85 460.646 C 1486.85 500.692 1468.04 552.736 1447.9 589.079 C 1442.51 599.226 1434.5 608.291 1428.93 618.28 C 1414.68 643.809 1396.68 670.267 1386.33 697.358 C 1370.14 739.767 1391.89 734.508 1421.02 751.697 C 1423.92 753.406 1428.17 757.184 1429.73 760.46 C 1429.67 771.155 1395.41 771.233 1386.83 771.921 C 1274.15 780.953 1161.31 780.915 1048.39 779.214 L 861.643 775.952 C 802.045 774.317 728.25 768.474 669.904 770.242 C 662.764 785.339 658.417 791.317 647.252 803.825 C 632.173 815.996 617.905 813.845 600.165 810.355 C 611.116 791.176 615.876 782.111 617.503 760.183 C 610.93 757.733 597.067 753.748 594.81 747.06 C 600.384 741.048 626.273 746.705 634.857 747.303 C 846.233 762.017 1059.06 750.542 1270.51 742.486 C 1289.36 741.768 1312.82 741.472 1330.83 738.372 C 1334.6 719.817 1342.52 701.666 1347.35 682.793 C 1351.61 666.135 1352.33 645.401 1358.45 630.465 C 1364.73 614.902 1377.76 601.632 1384.4 586.43 C 1396.06 559.742 1378.13 563.605 1364.55 557.377 C 1357.37 547.388 1371.66 526.608 1366.67 514.298 C 1365.39 511.127 1363.9 506.812 1360.72 505.096 C 1356.67 509.458 1359.53 525.65 1350.12 527.803 C 1348.6 528.151 1344.33 527.704 1343.39 526.505 C 1328.86 507.856 1328.05 479.561 1318.75 458.099 C 1311.11 442.031 1289.77 426.923 1278.34 413.638 C 1273.55 408.083 1264.34 398.207 1261.62 392.795 C 1251.02 371.675 1243.14 349.461 1235.32 327.315 C 1231.1 315.35 1224.91 304.489 1222.2 292.029 C 1217.84 271.942 1229.38 264.899 1239.37 250.796 C 1246.29 241.012 1244.84 221.617 1240.34 210.815 C 1237.03 202.426 1231.12 194.283 1229.43 185.351 C 1225.18 162.864 1237.03 146.542 1258.94 142.325 z M 1336.06 440.946 C 1335.6 430.11 1328.03 414.227 1324 403.803 C 1319.6 392.404 1316.63 375.399 1307.48 367.543 C 1302.69 363.432 1288.88 353.553 1283.07 352.143 C 1283.05 359.845 1284.45 375.189 1289.31 380.957 C 1299.1 392.57 1323.96 437.501 1336.06 440.946 z"/>
<path transform="translate(0,0)" fill="rgb(18,17,17)" d="M 1049.54 509.355 C 1050.86 509.091 1055.09 508.626 1056.49 508.842 C 1114.08 517.722 1112.75 528.823 1111.42 578.304 C 1102.86 578.023 1095.57 577.798 1087.02 576.768 C 1085.5 565.153 1085.2 554.088 1075.6 545.709 C 1065.22 536.658 1051.23 541.02 1043.14 550.924 C 1034.67 561.304 1035.46 572.064 1036.79 584.461 C 1053.64 597.666 1077.65 598.657 1094.56 613.91 C 1108.09 626.685 1114.85 653.486 1116.03 671.319 C 1117.9 699.861 1097.63 725.275 1068.59 726.251 C 1052.78 725.984 1023.02 721.237 1011.55 709.24 C 999.336 696.463 998.889 674.751 999.138 658.299 C 1008.07 656.461 1020.06 656.889 1029.4 656.895 C 1034.17 702.939 1081.52 698.91 1078.22 659.881 C 1075.67 629.754 1034.13 628.744 1014.3 612.287 C 992.606 594.291 992.681 556.158 1011.25 535.51 C 1023.29 522.343 1030.84 511.201 1049.54 509.355 z"/>
<path transform="translate(0,0)" fill="rgb(18,17,17)" d="M 1134.57 505.106 C 1176.31 504.528 1224.05 506.219 1266.17 507.284 C 1266.67 520.643 1266.97 532.285 1266.65 545.628 C 1252.61 546.873 1237.57 547.432 1223.43 548.186 C 1221.88 567.714 1222.42 589.313 1222.51 609.031 L 1222.56 683.25 C 1222.57 697.661 1222.49 712.072 1222.34 726.482 C 1208.26 727.089 1194.17 726.989 1180.1 726.183 L 1180.08 550.55 C 1128.89 547.997 1132.76 561.211 1134.57 505.106 z"/>
<path transform="translate(0,0)" fill="rgb(18,17,17)" d="M 1136.25 296.207 C 1156.74 294.388 1189.3 297.296 1203.94 314.039 C 1213 324.407 1211.39 337.379 1210.29 350.001 C 1202.63 350.687 1196.94 350.654 1189.22 350.549 C 1187.09 342.266 1188.08 329.087 1177.33 326.625 C 1168.52 324.692 1146.92 322.362 1139.3 327.406 C 1125.11 336.811 1126.34 367.412 1125.89 381.856 C 1124.89 413.62 1128.96 449.3 1170.35 444.886 C 1176.64 444.215 1185.88 435.309 1187.13 429.084 C 1183.63 422.573 1172.72 429.686 1165.48 424.893 C 1164.2 420.712 1164.72 413.365 1164.8 408.75 C 1164.83 407.782 1165.24 406.262 1165.46 405.258 C 1170.71 401.819 1202.81 405.351 1211.26 406.02 C 1211.28 429.384 1210.72 452.744 1209.58 476.079 L 1193.48 475.792 L 1192.82 458.737 C 1188.4 467.393 1184.7 477.422 1173.77 479.049 C 1140.42 484.014 1111.47 464.863 1105.15 431.312 C 1102.98 417.563 1102.45 402.715 1102.8 388.731 C 1103.57 357.407 1094.45 304.084 1136.25 296.207 z"/>
</svg>